<svg width="36" height="37" viewBox="0 0 36 37" fill="none" xmlns="http://www.w3.org/2000/svg">
<path fill-rule="evenodd" clip-rule="evenodd" d="M0.666687 36.9012V4.62502C0.666687 2.33385 2.51491 0.462524 4.7778 0.462524H31.4445C33.7074 0.462524 35.5556 2.33385 35.5556 4.62502V24.875C35.5556 27.1662 33.7074 29.0375 31.4445 29.0375H8.4333L0.666687 36.9012ZM8.11113 28.25H31.4445C33.2778 28.25 34.7778 26.7313 34.7778 24.875V4.62502C34.7778 2.76877 33.2778 1.25002 31.4445 1.25002H4.7778C2.94446 1.25002 1.44446 2.76877 1.44446 4.62502V35L8.11113 28.25ZM6.7778 24.875H31.4445V4.62502H4.7778V26.9L6.7778 24.875ZM5.55558 24.9988L6.45563 24.0875H30.6667V5.41252H5.55558V24.9988Z" fill="#004D44"/>
</svg>
