<svg width="24" height="28" xmlns="http://www.w3.org/2000/svg">
<path d="M11.9998 27.6667C13.5582 27.6667 14.8332 26.3917 14.8332 24.8334H9.1665C9.1665 26.3917 10.4415 27.6667 11.9998 27.6667ZM20.4998 19.1667V12.0834C20.4998 7.73419 18.1907 4.09335 14.1248 3.13002V2.16669C14.1248 0.990854 13.1757 0.041687 11.9998 0.041687C10.824 0.041687 9.87484 0.990854 9.87484 2.16669V3.13002C5.82317 4.09335 3.49984 7.72002 3.49984 12.0834V19.1667L0.666504 22V23.4167H23.3332V22L20.4998 19.1667ZM17.6665 20.5834H6.33317V12.0834C6.33317 8.57002 8.47234 5.70835 11.9998 5.70835C15.5273 5.70835 17.6665 8.57002 17.6665 12.0834V20.5834Z" fill="white"/>
</svg>
