<svg width="18" height="15" viewBox="0 0 18 15" fill="none" xmlns="http://www.w3.org/2000/svg"><path fill="currentColor" d="M16.5 0.75H1.5C0.6825 0.78 0.03 1.4325 0 2.25V12.75C0.03 13.5675 0.6825 14.22 1.5 14.25H16.5C17.3175 14.22 17.97 13.5675 18 12.75V2.25C17.9862 1.85657 17.8237 1.48301 17.5454 1.20464C17.267 0.926271 16.8934 0.763804 16.5 0.75ZM16.5 12.75H1.5V2.25H16.5V12.75ZM10.5 11.25V10.3125C10.5 9.0675 7.995 8.4375 6.75 8.4375C5.505 8.4375 3 9.0675 3 10.3125V11.25H10.5ZM6.75 3.75C6.25272 3.75 5.77581 3.94754 5.42417 4.29917C5.07254 4.65081 4.875 5.12772 4.875 5.625C4.875 5.87123 4.9235 6.11505 5.01773 6.34253C5.11195 6.57002 5.25006 6.77672 5.42417 6.95083C5.77581 7.30246 6.25272 7.5 6.75 7.5C6.99623 7.5 7.24005 7.4515 7.46753 7.35727C7.69502 7.26305 7.90172 7.12494 8.07582 6.95083C8.24994 6.77672 8.38805 6.57002 8.48227 6.34253C8.5765 6.11505 8.625 5.87123 8.625 5.625C8.625 5.37877 8.5765 5.13495 8.48227 4.90747C8.38805 4.67998 8.24994 4.47328 8.07582 4.29917C7.90172 4.12506 7.69502 3.98695 7.46753 3.89273C7.24005 3.7985 6.99623 3.75 6.75 3.75ZM10.5 3.75V4.5H15V3.75H10.5ZM10.5 5.25V6H15V5.25H10.5ZM10.5 6.75V7.5H13.5V6.75H10.5Z" /></svg>
