<svg width="18" height="18" viewBox="0 0 18 18" xmlns="http://www.w3.org/2000/svg"><path fill="currentColor" d="M15.75 8.8325V4.25C15.75 3.85218 15.592 3.47064 15.3107 3.18934C15.0294 2.90804 14.6478 2.75 14.25 2.75H11.115C10.8 1.88 9.975 1.25 9 1.25C8.025 1.25 7.2 1.88 6.885 2.75H3.75C2.925 2.75 2.25 3.425 2.25 4.25V14.75C2.25 15.1478 2.40804 15.5294 2.68934 15.8107C2.97064 16.092 3.35218 16.25 3.75 16.25H8.3325C9.2775 17.18 10.5675 17.75 12 17.75C14.9025 17.75 17.25 15.4025 17.25 12.5C17.25 11.0675 16.68 9.7775 15.75 8.8325ZM9 2.75C9.4125 2.75 9.75 3.0875 9.75 3.5C9.75 3.9125 9.4125 4.25 9 4.25C8.5875 4.25 8.25 3.9125 8.25 3.5C8.25 3.0875 8.5875 2.75 9 2.75ZM3.75 14.75V4.25H5.25V5.75H12.75V4.25H14.25V7.76C13.5675 7.4375 12.81 7.25 12 7.25H5.25V8.75H8.325C7.875 9.1775 7.53 9.6875 7.26 10.25H5.25V11.75H6.81C6.7725 11.9975 6.75 12.245 6.75 12.5C6.75 13.31 6.9375 14.0675 7.26 14.75H3.75ZM12 16.25C9.93 16.25 8.25 14.57 8.25 12.5C8.25 10.43 9.93 8.75 12 8.75C14.07 8.75 15.75 10.43 15.75 12.5C15.75 14.57 14.07 16.25 12 16.25ZM12.375 12.6875L14.52 13.955L13.9575 14.87L11.25 13.25V9.5H12.375V12.6875Z" /></svg>
